<?xml version="1.0" encoding="UTF-8"?>
<svg width="700pt" height="700pt" version="1.1" viewBox="0 0 700 700" xmlns="http://www.w3.org/2000/svg" xmlns:xlink="http://www.w3.org/1999/xlink">
 <defs>
  <symbol id="w" overflow="visible">
   <path d="m13.844-0.82812c-0.71094 0.375-1.4531 0.65625-2.2344 0.84375-0.77344 0.1875-1.5742 0.28125-2.4062 0.28125-2.5117 0-4.5-0.70312-5.9688-2.1094s-2.2031-3.3047-2.2031-5.7031c0-2.4141 0.73438-4.3203 2.2031-5.7188 1.4688-1.4062 3.457-2.1094 5.9688-2.1094 0.83203 0 1.6328 0.09375 2.4062 0.28125 0.78125 0.1875 1.5234 0.46875 2.2344 0.84375v3.1094c-0.71875-0.48828-1.4297-0.84766-2.125-1.0781-0.69922-0.22656-1.4336-0.34375-2.2031-0.34375-1.3984 0-2.4922 0.44922-3.2812 1.3438-0.79297 0.88672-1.1875 2.1094-1.1875 3.6719 0 1.5547 0.39453 2.7773 1.1875 3.6719 0.78906 0.88672 1.8828 1.3281 3.2812 1.3281 0.76953 0 1.5039-0.11328 2.2031-0.34375 0.69531-0.22656 1.4062-0.59375 2.125-1.0938z"/>
  </symbol>
  <symbol id="d" overflow="visible">
   <path d="m10.141-8.2188c-0.32422-0.15625-0.64062-0.26562-0.95312-0.32812-0.3125-0.070313-0.625-0.10938-0.9375-0.10938-0.92969 0-1.6484 0.29688-2.1562 0.89062-0.5 0.59375-0.75 1.4492-0.75 2.5625v5.2031h-3.6094v-11.312h3.6094v1.8594c0.46875-0.73828 1.0039-1.2734 1.6094-1.6094 0.60156-0.34375 1.3203-0.51562 2.1562-0.51562 0.125 0 0.25391 0.007813 0.39062 0.015625 0.14453 0.011719 0.35156 0.03125 0.625 0.0625z"/>
  </symbol>
  <symbol id="a" overflow="visible">
   <path d="m13.016-5.6875v1.0312h-8.4375c0.082031 0.85547 0.38281 1.4961 0.90625 1.9219 0.53125 0.41797 1.2656 0.625 2.2031 0.625 0.75781 0 1.5352-0.10938 2.3281-0.32812 0.80078-0.22656 1.625-0.57031 2.4688-1.0312v2.7812c-0.85547 0.32422-1.7109 0.57031-2.5625 0.73438-0.85547 0.16406-1.7109 0.25-2.5625 0.25-2.043 0-3.6328-0.51953-4.7656-1.5625-1.1367-1.0391-1.7031-2.5-1.7031-4.375 0-1.8438 0.55469-3.2891 1.6719-4.3438 1.1133-1.0625 2.6445-1.5938 4.5938-1.5938 1.7812 0 3.2031 0.53906 4.2656 1.6094 1.0625 1.0625 1.5938 2.4922 1.5938 4.2812zm-3.7031-1.2031c0-0.67578-0.20312-1.2227-0.60938-1.6406-0.39844-0.42578-0.91797-0.64062-1.5625-0.64062-0.69922 0-1.2656 0.19922-1.7031 0.59375-0.4375 0.38672-0.71484 0.94922-0.82812 1.6875z"/>
  </symbol>
  <symbol id="k" overflow="visible">
   <path d="m6.7969-5.0938c-0.75 0-1.3203 0.13281-1.7031 0.39062-0.375 0.26172-0.5625 0.63672-0.5625 1.125 0 0.46094 0.14844 0.82031 0.45312 1.0781 0.3125 0.26172 0.73828 0.39062 1.2812 0.39062 0.67578 0 1.25-0.24219 1.7188-0.73438 0.46875-0.48828 0.70312-1.0977 0.70312-1.8281v-0.42188zm5.5312-1.3594v6.4531h-3.6406v-1.6719c-0.49219 0.6875-1.0391 1.1875-1.6406 1.5-0.60547 0.3125-1.3438 0.46875-2.2188 0.46875-1.168 0-2.1172-0.33594-2.8438-1.0156-0.73047-0.6875-1.0938-1.5781-1.0938-2.6719 0-1.3203 0.45312-2.2891 1.3594-2.9062 0.91406-0.625 2.3477-0.9375 4.2969-0.9375h2.1406v-0.28125c0-0.57031-0.23047-0.98828-0.6875-1.25-0.44922-0.26953-1.1523-0.40625-2.1094-0.40625-0.77344 0-1.4922 0.078125-2.1562 0.23438-0.66797 0.15625-1.2891 0.38672-1.8594 0.6875v-2.75c0.76953-0.1875 1.5469-0.32812 2.3281-0.42188 0.78125-0.10156 1.5625-0.15625 2.3438-0.15625 2.0391 0 3.5156 0.40234 4.4219 1.2031 0.90625 0.80469 1.3594 2.1094 1.3594 3.9219z"/>
  </symbol>
  <symbol id="c" overflow="visible">
   <path d="m5.6875-14.516v3.2031h3.7188v2.5938h-3.7188v4.7969c0 0.52344 0.10156 0.875 0.3125 1.0625 0.20703 0.1875 0.61719 0.28125 1.2344 0.28125h1.8594v2.5781h-3.0938c-1.4297 0-2.4453-0.29688-3.0469-0.89062-0.59375-0.59375-0.89062-1.6016-0.89062-3.0312v-4.7969h-1.7969v-2.5938h1.7969v-3.2031z"/>
  </symbol>
  <symbol id="g" overflow="visible">
   <path d="m9.4219-9.6562v-6.0469h3.6406v15.703h-3.6406v-1.6406c-0.49219 0.66797-1.0391 1.1562-1.6406 1.4688-0.59375 0.3125-1.2891 0.46875-2.0781 0.46875-1.3984 0-2.543-0.55078-3.4375-1.6562-0.89844-1.1133-1.3438-2.5391-1.3438-4.2812 0-1.7383 0.44531-3.1602 1.3438-4.2656 0.89453-1.1133 2.0391-1.6719 3.4375-1.6719 0.78125 0 1.4727 0.15625 2.0781 0.46875 0.60156 0.3125 1.1484 0.79688 1.6406 1.4531zm-2.375 7.3281c0.76953 0 1.3594-0.28125 1.7656-0.84375 0.40625-0.57031 0.60938-1.3945 0.60938-2.4688 0-1.0703-0.20312-1.8906-0.60938-2.4531-0.40625-0.57031-0.99609-0.85938-1.7656-0.85938-0.77344 0-1.3594 0.28906-1.7656 0.85938-0.40625 0.5625-0.60938 1.3828-0.60938 2.4531 0 1.0742 0.20312 1.8984 0.60938 2.4688 0.40625 0.5625 0.99219 0.84375 1.7656 0.84375z"/>
  </symbol>
  <symbol id="f" overflow="visible">
   <path d="m7.75-2.3281c0.76953 0 1.3594-0.28125 1.7656-0.84375 0.41406-0.57031 0.625-1.3945 0.625-2.4688 0-1.0703-0.21094-1.8906-0.625-2.4531-0.40625-0.57031-0.99609-0.85938-1.7656-0.85938-0.77344 0-1.3672 0.28906-1.7812 0.85938-0.41797 0.5625-0.625 1.3828-0.625 2.4531 0 1.0742 0.20703 1.8984 0.625 2.4688 0.41406 0.5625 1.0078 0.84375 1.7812 0.84375zm-2.4062-7.3281c0.5-0.65625 1.0508-1.1406 1.6562-1.4531 0.60156-0.3125 1.3008-0.46875 2.0938-0.46875 1.3945 0 2.5391 0.55859 3.4375 1.6719 0.89453 1.1055 1.3438 2.5273 1.3438 4.2656 0 1.7422-0.44922 3.168-1.3438 4.2812-0.89844 1.1055-2.043 1.6562-3.4375 1.6562-0.79297 0-1.4922-0.15625-2.0938-0.46875-0.60547-0.3125-1.1562-0.80078-1.6562-1.4688v1.6406h-3.6094v-15.703h3.6094z"/>
  </symbol>
  <symbol id="j" overflow="visible">
   <path d="m0.25-11.312h3.6094l3.0469 7.6719 2.5781-7.6719h3.625l-4.7656 12.375c-0.48047 1.2578-1.0391 2.1406-1.6719 2.6406-0.63672 0.50781-1.4766 0.76562-2.5156 0.76562h-2.0938v-2.375h1.1406c0.61328 0 1.0547-0.10156 1.3281-0.29688 0.28125-0.19922 0.5-0.54688 0.65625-1.0469l0.10938-0.3125z"/>
  </symbol>
  <symbol id="e" overflow="visible">
   <path d="m11.047-2.75h-6.0781l-0.96875 2.75h-3.9062l5.5938-15.062h4.625l5.5781 15.062h-3.9062zm-5.1094-2.7969h4.125l-2.0625-5.9844z"/>
  </symbol>
  <symbol id="v" overflow="visible">
   <path d="m1.8906-15.062h3.8906v15.062h-3.8906z"/>
  </symbol>
  <symbol id="i" overflow="visible">
   <path d="m10.875-10.953v2.9531c-0.49219-0.34375-0.98438-0.59375-1.4844-0.75-0.49219-0.16406-1-0.25-1.5312-0.25-1.0117 0-1.7969 0.29688-2.3594 0.89062-0.5625 0.58594-0.84375 1.4062-0.84375 2.4688 0 1.0547 0.28125 1.875 0.84375 2.4688 0.5625 0.58594 1.3477 0.875 2.3594 0.875 0.5625 0 1.0938-0.082031 1.5938-0.25 0.50781-0.16406 0.98438-0.41406 1.4219-0.75v2.9688c-0.57422 0.21094-1.1523 0.36328-1.7344 0.46875-0.57422 0.10156-1.1523 0.15625-1.7344 0.15625-2.043 0-3.6406-0.51953-4.7969-1.5625-1.1484-1.0508-1.7188-2.5078-1.7188-4.375 0-1.8633 0.57031-3.3164 1.7188-4.3594 1.1562-1.0508 2.7539-1.5781 4.7969-1.5781 0.58203 0 1.1602 0.054687 1.7344 0.15625 0.58203 0.10547 1.1602 0.26172 1.7344 0.46875z"/>
  </symbol>
  <symbol id="b" overflow="visible">
   <path d="m7.1094-9c-0.79297 0-1.4023 0.29297-1.8281 0.875-0.41797 0.57422-0.625 1.4023-0.625 2.4844 0 1.0859 0.20703 1.9141 0.625 2.4844 0.42578 0.57422 1.0352 0.85938 1.8281 0.85938 0.78906 0 1.3945-0.28516 1.8125-0.85938 0.41406-0.57031 0.625-1.3984 0.625-2.4844 0-1.082-0.21094-1.9102-0.625-2.4844-0.41797-0.58203-1.0234-0.875-1.8125-0.875zm0-2.5781c1.9453 0 3.4688 0.52734 4.5625 1.5781 1.0938 1.0547 1.6406 2.5078 1.6406 4.3594 0 1.8555-0.54688 3.3086-1.6406 4.3594-1.0938 1.0547-2.6172 1.5781-4.5625 1.5781-1.9492 0-3.4766-0.52344-4.5781-1.5781-1.0938-1.0508-1.6406-2.5039-1.6406-4.3594 0-1.8516 0.54688-3.3047 1.6406-4.3594 1.1016-1.0508 2.6289-1.5781 4.5781-1.5781z"/>
  </symbol>
  <symbol id="h" overflow="visible">
   <path d="m13.109-6.8906v6.8906h-3.6406v-5.2656c0-0.97656-0.023438-1.6484-0.0625-2.0156-0.042969-0.375-0.12109-0.64844-0.23438-0.82812-0.13672-0.22656-0.32812-0.41016-0.57812-0.54688-0.24219-0.13281-0.51562-0.20312-0.82812-0.20312-0.75 0-1.3438 0.29297-1.7812 0.875-0.42969 0.58594-0.64062 1.3906-0.64062 2.4219v5.5625h-3.6094v-11.312h3.6094v1.6562c0.55078-0.65625 1.1289-1.1406 1.7344-1.4531 0.61328-0.3125 1.2891-0.46875 2.0312-0.46875 1.3125 0 2.3047 0.40234 2.9844 1.2031 0.67578 0.80469 1.0156 1.9648 1.0156 3.4844z"/>
  </symbol>
  <symbol id="u" overflow="visible">
   <path d="m10.562-10.953v2.75c-0.77344-0.32031-1.5156-0.5625-2.2344-0.71875-0.71875-0.16406-1.4023-0.25-2.0469-0.25-0.67969 0-1.1836 0.089844-1.5156 0.26562-0.33594 0.16797-0.5 0.42969-0.5 0.78125 0 0.29297 0.125 0.51562 0.375 0.67188 0.25 0.14844 0.70312 0.26172 1.3594 0.34375l0.625 0.078125c1.8516 0.24219 3.0977 0.63281 3.7344 1.1719 0.64453 0.53125 0.96875 1.375 0.96875 2.5312 0 1.1992-0.44922 2.1055-1.3438 2.7188-0.88672 0.60547-2.2109 0.90625-3.9688 0.90625-0.75 0-1.5273-0.0625-2.3281-0.1875-0.79297-0.11328-1.6094-0.28516-2.4531-0.51562v-2.75c0.72656 0.34375 1.4688 0.60547 2.2188 0.78125 0.75781 0.17969 1.5312 0.26562 2.3125 0.26562 0.70703 0 1.2383-0.09375 1.5938-0.28125 0.35156-0.19531 0.53125-0.48828 0.53125-0.875 0-0.32031-0.125-0.5625-0.375-0.71875-0.24219-0.16406-0.72656-0.28906-1.4531-0.375l-0.64062-0.078125c-1.6055-0.20703-2.7344-0.58203-3.3906-1.125-0.64844-0.53906-0.96875-1.3672-0.96875-2.4844 0-1.1953 0.41016-2.082 1.2344-2.6562 0.82031-0.58203 2.082-0.875 3.7812-0.875 0.66406 0 1.3633 0.054687 2.0938 0.15625 0.73828 0.09375 1.5352 0.25 2.3906 0.46875z"/>
  </symbol>
  <symbol id="t" overflow="visible">
   <path d="m8.6562-1.7188c-0.91797-1.6133-2.7812-3.2344-5.5938-4.8594-1.3047-0.75781-1.9531-1.7383-1.9531-2.9375 0-0.50781 0.09375-1 0.28125-1.4688 0.1875-0.45703 0.46094-0.86719 0.82812-1.2344 0.35156-0.34375 0.76562-0.61719 1.2344-0.82812 0.4375-0.1875 0.91016-0.28125 1.4219-0.28125 0.51953 0 1 0.09375 1.4375 0.28125 0.45703 0.19922 0.86719 0.47656 1.2344 0.82812 0.35156 0.35547 0.62891 0.76562 0.82812 1.2344 0.1875 0.44922 0.28125 0.9375 0.28125 1.4688 0-0.53125 0.09375-1.0195 0.28125-1.4688 0.19531-0.46875 0.47266-0.87891 0.82812-1.2344 0.36328-0.35156 0.77344-0.62891 1.2344-0.82812 0.4375-0.1875 0.91406-0.28125 1.4375-0.28125 0.51953 0 1 0.09375 1.4375 0.28125 0.45703 0.21094 0.86328 0.48438 1.2188 0.82812 0.375 0.36719 0.64844 0.77734 0.82812 1.2344 0.1875 0.46875 0.28125 0.96094 0.28125 1.4688 0 1.2109-0.65234 2.1875-1.9531 2.9375-2.8047 1.625-4.668 3.2461-5.5938 4.8594z"/>
  </symbol>
  <symbol id="s" overflow="visible"></symbol>
  <symbol id="r" overflow="visible">
   <path d="m9.1719-15.703v2.375h-2c-0.51172 0-0.87109 0.09375-1.0781 0.28125-0.19922 0.17969-0.29688 0.49609-0.29688 0.95312v0.78125h3.0938v2.5938h-3.0938v8.7188h-3.6094v-8.7188h-1.7969v-2.5938h1.7969v-0.78125c0-1.2266 0.34375-2.1328 1.0312-2.7188 0.6875-0.59375 1.75-0.89062 3.1875-0.89062z"/>
  </symbol>
  <symbol id="q" overflow="visible">
   <path d="m12.219-9.4219c0.45703-0.70703 1-1.2422 1.625-1.6094 0.625-0.36328 1.3164-0.54688 2.0781-0.54688 1.2891 0 2.2734 0.40234 2.9531 1.2031 0.6875 0.80469 1.0312 1.9648 1.0312 3.4844v6.8906h-3.6406v-5.8906c0.007813-0.09375 0.015625-0.1875 0.015625-0.28125 0.007812-0.09375 0.015625-0.22656 0.015625-0.40625 0-0.78906-0.12109-1.3672-0.35938-1.7344-0.24219-0.36328-0.62109-0.54688-1.1406-0.54688-0.6875 0-1.2188 0.28906-1.5938 0.85938-0.375 0.5625-0.57031 1.3828-0.57812 2.4531v5.5469h-3.625v-5.8906c0-1.25-0.10938-2.0547-0.32812-2.4219-0.21875-0.36328-0.60547-0.54688-1.1562-0.54688-0.6875 0-1.2266 0.28906-1.6094 0.85938-0.375 0.57422-0.5625 1.3867-0.5625 2.4375v5.5625h-3.625v-11.312h3.625v1.6562c0.44531-0.63281 0.95703-1.1133 1.5312-1.4375 0.57031-0.32031 1.207-0.48438 1.9062-0.48438 0.78125 0 1.4688 0.1875 2.0625 0.5625 0.60156 0.375 1.0625 0.90625 1.375 1.5938z"/>
  </symbol>
  <symbol id="p" overflow="visible">
   <path d="m13.109-6.8906v6.8906h-3.6406v-5.25c0-0.98828-0.023438-1.6641-0.0625-2.0312-0.042969-0.375-0.12109-0.64844-0.23438-0.82812-0.13672-0.22656-0.32812-0.41016-0.57812-0.54688-0.24219-0.13281-0.51562-0.20312-0.82812-0.20312-0.75 0-1.3438 0.29297-1.7812 0.875-0.42969 0.58594-0.64062 1.3906-0.64062 2.4219v5.5625h-3.6094v-15.703h3.6094v6.0469c0.55078-0.65625 1.1289-1.1406 1.7344-1.4531 0.61328-0.3125 1.2891-0.46875 2.0312-0.46875 1.3125 0 2.3047 0.40234 2.9844 1.2031 0.67578 0.80469 1.0156 1.9648 1.0156 3.4844z"/>
  </symbol>
  <symbol id="o" overflow="visible">
   <path d="m1.8906-15.062h4.3438l5.4844 10.328v-10.328h3.6875v15.062h-4.3438l-5.4844-10.344v10.344h-3.6875z"/>
  </symbol>
  <symbol id="n" overflow="visible">
   <path d="m1.6094-4.4062v-6.9062h3.6406v1.1406c0 0.61719-0.007812 1.3867-0.015625 2.3125v1.8438c0 0.90625 0.019531 1.5625 0.0625 1.9688 0.050781 0.39844 0.13281 0.6875 0.25 0.875 0.14453 0.23047 0.33594 0.41406 0.57812 0.54688 0.23828 0.125 0.50781 0.1875 0.8125 0.1875 0.75781 0 1.3516-0.28516 1.7812-0.85938 0.42578-0.58203 0.64062-1.3906 0.64062-2.4219v-5.5938h3.625v11.312h-3.625v-1.6406c-0.54297 0.66797-1.1211 1.1562-1.7344 1.4688-0.60547 0.3125-1.2734 0.46875-2 0.46875-1.3125 0-2.3125-0.39844-3-1.2031-0.67969-0.80078-1.0156-1.9688-1.0156-3.5z"/>
  </symbol>
  <symbol id="m" overflow="visible">
   <path d="m1.8906-15.062h6.4531c1.9141 0 3.3828 0.42969 4.4062 1.2812 1.0312 0.84375 1.5469 2.0547 1.5469 3.625 0 1.5859-0.51562 2.8047-1.5469 3.6562-1.0234 0.84375-2.4922 1.2656-4.4062 1.2656h-2.5625v5.2344h-3.8906zm3.8906 2.8125v4.2031h2.1562c0.75 0 1.3281-0.17969 1.7344-0.54688 0.41406-0.36328 0.625-0.88281 0.625-1.5625 0-0.66406-0.21094-1.1797-0.625-1.5469-0.40625-0.36328-0.98438-0.54688-1.7344-0.54688z"/>
  </symbol>
  <symbol id="l" overflow="visible">
   <path d="m1.7344-11.312h3.6094v11.109c0 1.5078-0.36719 2.6641-1.0938 3.4688-0.71875 0.80078-1.7734 1.2031-3.1562 1.2031h-1.7812v-2.375h0.625c0.6875 0 1.1562-0.15625 1.4062-0.46875 0.25781-0.3125 0.39062-0.92188 0.39062-1.8281zm0-4.3906h3.6094v2.9375h-3.6094z"/>
  </symbol>
 </defs>
 <g>
  <path d="m107.41 6.5586c-0.24219 0-0.47656 0.10156-0.64844 0.27344-0.17187 0.17578-0.26953 0.41016-0.26953 0.65234v545.03c0 0.50781 0.41016 0.92188 0.91797 0.92188h456.65c0.50781 0 0.91797-0.41406 0.91406-0.92188v-545.02h28.535v29.457-29.461h-28.539c0.003906-0.50781-0.41016-0.92188-0.91797-0.92188zm65.598 1.8398h97.125l21.406 28.539 271.61 0.003906v514.66h-454.81v-514.66h43.27zm-43.504 6.4492v14.73l-7.3672-7.3633zm14.73 0 7.3672 7.3672-7.3672 7.3672zm36.824 0v14.73h81.016v-14.73zm360.89 28.539c-4.5703 0-8.2812 3.7109-8.2812 8.2852v486.11c0 4.5742 3.707 8.2852 8.2812 8.2852s8.2891-3.707 8.2891-8.2852l0.003907-486.11c0-4.5703-3.7109-8.2852-8.2891-8.2891zm-419.82 23.016v14.734h29.461v-14.734zm51.559 0v14.734h73.652v-14.734zm-51.559 22.094v14.734h29.461v-14.734zm66.289 0v14.734h58.922v-14.734zm-66.289 22.094v14.734h29.461v-14.734zm81.016 0v14.734h110.48v-14.734zm-81.016 22.094v14.734h29.461v-14.734zm81.016 0v14.734l301.98 0.007812v-14.734zm-81.016 22.094v14.734h29.461v-14.734zm81.016 0v14.734l301.98 0.007812v-14.734zm332.36 10.941c1.2539 2.2617 3.6602 3.7891 6.4414 3.7891 2.7773 0 5.1875-1.5312 6.4414-3.7852v372.05c0 3.5898-2.8516 6.4453-6.4453 6.4453-3.5859 0-6.4375-2.8555-6.4375-6.4453zm-413.38 11.156v14.73h29.461v-14.73zm66.289 0v14.73h58.922v-14.73zm-66.289 22.094v14.73h29.461v-14.73zm66.289 0v14.73h58.922v-14.73zm-66.289 22.094v14.73h29.461v-14.73zm81.016 0v14.73h44.191v-14.73zm-81.016 22.094v14.73h29.461v-14.73zm95.75 0v14.73h44.191v-14.73zm-95.75 22.094v14.73h29.461v-14.73zm110.48 0v14.73l272.52 0.015625v-14.73zm-110.48 22.094v14.73h29.461v-14.73zm110.48 0v14.73l272.52 0.019531v-14.73zm-110.48 22.094v14.73h29.461v-14.73zm95.75 0v14.73h44.191v-14.73zm-14.734 22.094v14.73h44.191v-14.73zm-81.016 0v14.73h29.461v-14.73zm81.016 22.09v14.73h44.191v-14.73zm-81.016 0v14.73h29.461v-14.73zm95.75 22.094v14.73h44.191v-14.73zm-95.75 0v14.73h29.461v-14.73zm110.48 22.094v14.727l272.52 0.027344v-14.727zm-110.48 0v14.727h29.461v-14.727zm110.48 22.086v14.73l272.52 0.027344v-14.73zm-110.48 0v14.73h29.461v-14.73zm110.48 22.09v14.73l272.52 0.03125v-14.73zm-110.48 0v14.73h29.461v-14.73zm110.48 22.098v14.73l272.52 0.03125v-14.73zm-110.48 0v14.73h29.461v-14.73zm95.75 22.09v14.727h44.191v-14.727zm-95.75 0v14.727h29.461v-14.727zm81.016 22.09v14.727h44.191v-14.727zm-81.016 0v14.734h29.461v-14.734zm0 22.086v14.73h29.461v-14.73zm51.559 0v14.73h73.652v-14.73z"/>
  <use x="70" y="622.007813" xlink:href="#w"/>
  <use x="85.167969" y="622.007813" xlink:href="#d"/>
  <use x="95.363281" y="622.007813" xlink:href="#a"/>
  <use x="109.378906" y="622.007813" xlink:href="#k"/>
  <use x="123.328125" y="622.007813" xlink:href="#c"/>
  <use x="133.207031" y="622.007813" xlink:href="#a"/>
  <use x="147.226562" y="622.007813" xlink:href="#g"/>
  <use x="169.21875" y="622.007813" xlink:href="#f"/>
  <use x="184.015625" y="622.007813" xlink:href="#j"/>
  <use x="204.683594" y="622.007813" xlink:href="#e"/>
  <use x="220.679688" y="622.007813" xlink:href="#g"/>
  <use x="235.476562" y="622.007813" xlink:href="#f"/>
  <use x="250.269531" y="622.007813" xlink:href="#e"/>
  <use x="273.460938" y="622.007813" xlink:href="#v"/>
  <use x="281.152344" y="622.007813" xlink:href="#i"/>
  <use x="293.40625" y="622.007813" xlink:href="#b"/>
  <use x="307.605469" y="622.007813" xlink:href="#h"/>
  <use x="322.320313" y="622.007813" xlink:href="#u"/>
  <use x="341.820313" y="622.007813" xlink:href="#t"/>
  <use x="359.136719" y="622.007813" xlink:href="#s"/>
  <use x="70" y="642.675781" xlink:href="#r"/>
  <use x="78.992188" y="642.675781" xlink:href="#d"/>
  <use x="89.1875" y="642.675781" xlink:href="#b"/>
  <use x="103.386719" y="642.675781" xlink:href="#q"/>
  <use x="132.117188" y="642.675781" xlink:href="#c"/>
  <use x="142" y="642.675781" xlink:href="#p"/>
  <use x="156.714844" y="642.675781" xlink:href="#a"/>
  <use x="177.929688" y="642.675781" xlink:href="#o"/>
  <use x="195.226562" y="642.675781" xlink:href="#b"/>
  <use x="209.425781" y="642.675781" xlink:href="#n"/>
  <use x="224.140625" y="642.675781" xlink:href="#h"/>
  <use x="246.050781" y="642.675781" xlink:href="#m"/>
  <use x="261.199219" y="642.675781" xlink:href="#d"/>
  <use x="271.394531" y="642.675781" xlink:href="#b"/>
  <use x="285.59375" y="642.675781" xlink:href="#l"/>
  <use x="292.679688" y="642.675781" xlink:href="#a"/>
  <use x="306.695312" y="642.675781" xlink:href="#i"/>
  <use x="318.949219" y="642.675781" xlink:href="#c"/>
 </g>
</svg>
